<svg width="124" height="99" viewBox="0 0 124 99" fill="none" xmlns="http://www.w3.org/2000/svg">
<path fill-rule="evenodd" clip-rule="evenodd" d="M12.4 0C9.11132 0 5.95733 1.30379 3.63188 3.62455C1.30642 5.94532 0 9.09295 0 12.375V86.625C0 89.9071 1.30642 93.0547 3.63188 95.3754C5.95733 97.6962 9.11132 99 12.4 99H111.6C114.889 99 118.043 97.6962 120.368 95.3754C122.694 93.0547 124 89.9071 124 86.625V12.375C124 9.09295 122.694 5.94532 120.368 3.62455C118.043 1.30379 114.889 0 111.6 0H12.4ZM74.4 30.9375C74.4 29.2965 75.0532 27.7227 76.2159 26.5623C77.3787 25.4019 78.9557 24.75 80.6 24.75H99.2C100.844 24.75 102.421 25.4019 103.584 26.5623C104.747 27.7227 105.4 29.2965 105.4 30.9375C105.4 32.5785 104.747 34.1523 103.584 35.3127C102.421 36.4731 100.844 37.125 99.2 37.125H80.6C78.9557 37.125 77.3787 36.4731 76.2159 35.3127C75.0532 34.1523 74.4 32.5785 74.4 30.9375ZM74.4 49.5C74.4 47.859 75.0532 46.2852 76.2159 45.1248C77.3787 43.9644 78.9557 43.3125 80.6 43.3125H99.2C100.844 43.3125 102.421 43.9644 103.584 45.1248C104.747 46.2852 105.4 47.859 105.4 49.5C105.4 51.141 104.747 52.7148 103.584 53.8752C102.421 55.0356 100.844 55.6875 99.2 55.6875H80.6C78.9557 55.6875 77.3787 55.0356 76.2159 53.8752C75.0532 52.7148 74.4 51.141 74.4 49.5ZM74.4 68.0625C74.4 66.4215 75.0532 64.8477 76.2159 63.6873C77.3787 62.5269 78.9557 61.875 80.6 61.875H99.2C100.844 61.875 102.421 62.5269 103.584 63.6873C104.747 64.8477 105.4 66.4215 105.4 68.0625C105.4 69.7035 104.747 71.2773 103.584 72.4377C102.421 73.5981 100.844 74.25 99.2 74.25H80.6C78.9557 74.25 77.3787 73.5981 76.2159 72.4377C75.0532 71.2773 74.4 69.7035 74.4 68.0625ZM24.8 37.125C24.8 32.2019 26.7596 27.4805 30.2478 23.9993C33.736 20.5182 38.467 18.5625 43.4 18.5625C48.333 18.5625 53.064 20.5182 56.5522 23.9993C60.0404 27.4805 62 32.2019 62 37.125C62 42.0481 60.0404 46.7695 56.5522 50.2507C53.064 53.7318 48.333 55.6875 43.4 55.6875C38.467 55.6875 33.736 53.7318 30.2478 50.2507C26.7596 46.7695 24.8 42.0481 24.8 37.125ZM36.8404 61.875C32.9358 61.8736 29.1298 63.0986 25.9617 65.3763C22.7936 67.654 20.4241 70.869 19.189 74.5656L18.9162 75.3885L18.8914 75.4627C18.631 76.2424 18.5504 76.4961 18.631 76.6693C18.6682 76.7498 18.755 76.8116 18.8666 76.9106C19.065 77.0653 19.3626 77.3066 19.7718 77.8697C20.3463 78.6645 21.1017 79.3118 21.9759 79.7582C22.8501 80.2046 23.818 80.4375 24.8 80.4375H62C62.982 80.4375 63.9499 80.2046 64.8241 79.7582C65.6983 79.3118 66.4537 78.6645 67.0282 77.8697C67.2801 77.5066 67.5853 77.1833 67.9334 76.9106C68.0512 76.8116 68.1256 76.7497 68.169 76.6631C68.2558 76.4961 68.169 76.2424 67.9086 75.4627L67.8838 75.3885L67.611 74.5656C66.3762 70.87 64.0076 67.6557 60.8408 65.3781C57.6739 63.1005 53.8693 61.8749 49.9658 61.875H36.8404Z" fill="#2841A5"/>
</svg>
