<?xml version="1.0" encoding="utf-8"?>
<!-- Generator: Adobe Illustrator 28.1.0, SVG Export Plug-In . SVG Version: 6.00 Build 0)  -->
<svg version="1.1" id="Capa_1" xmlns="http://www.w3.org/2000/svg" xmlns:xlink="http://www.w3.org/1999/xlink" x="0px" y="0px"
	 viewBox="0 0 612 792" style="enable-background:new 0 0 612 792;" xml:space="preserve">
<style type="text/css">
	.st0{fill:none;stroke:#010202;stroke-width:7;stroke-miterlimit:10;}
	.st1{fill:none;stroke:#010202;stroke-width:5;stroke-miterlimit:10;}
	.st2{fill:none;stroke:#010202;stroke-width:4;stroke-miterlimit:10;}
</style>
<g>
	<g>
		<path d="M125.82,414.34l26.55,0.69c-1.75,13.74-6.51,24.36-14.27,31.86c-7.77,7.5-17.9,11.24-30.39,11.24
			c-12.7,0-23.33-4.26-31.89-12.77s-12.84-19.08-12.84-31.7c0-12.7,4.36-23.38,13.09-32.04s19.48-12.99,32.26-12.99
			c12.58,0,23.07,4.25,31.48,12.74c5.83,5.87,9.95,14.05,12.37,24.55l-27.17,1.81c-3.04-9.33-8.81-13.99-17.3-13.99
			c-5.41,0-9.88,1.87-13.4,5.62s-5.28,8.52-5.28,14.3c0,5.58,1.73,10.19,5.18,13.84c3.46,3.64,7.83,5.47,13.12,5.47
			c5.37,0,9.65-1.6,12.84-4.81S125.24,420.33,125.82,414.34z"/>
		<path d="M189.72,393.66V456h-25.36v-85.26h32.54c9.91,0,17.59,2.46,23.05,7.37c6.08,5.5,9.12,12.47,9.12,20.93
			c0,8.62-3.77,15.89-11.31,21.8L232.38,456h-26.61l-12.31-27.48v-21.93h2c5.33,0,8-2.29,8-6.87c0-4.04-3.08-6.06-9.24-6.06H189.72z
			"/>
		<path d="M335.51,456v-55.34c0-9.7,2.9-17.47,8.71-23.3c5.81-5.83,13.55-8.75,23.21-8.75c9.62,0,16.98,2.83,22.08,8.5
			c5.1,5.66,7.65,13.8,7.65,24.42V456h-25.36v-54.47c0-5.21-1.85-7.81-5.56-7.81c-3.58,0-5.37,2.6-5.37,7.81V456H335.51z"/>
		<path d="M453.01,368.61c12.08,0,22.44,4.39,31.08,13.18s12.96,19.3,12.96,31.54c0,12.45-4.35,23.03-13.06,31.73
			s-19.28,13.06-31.73,13.06c-12.37,0-22.92-4.37-31.67-13.12s-13.12-19.3-13.12-31.67c0-12.49,4.4-23.07,13.21-31.73
			C429.49,372.94,440.27,368.61,453.01,368.61z M452.26,393.72c-5.21,0-9.64,1.92-13.31,5.75s-5.5,8.45-5.5,13.87
			s1.84,10.04,5.53,13.87s8.11,5.75,13.27,5.75c5.25,0,9.69-1.91,13.34-5.72s5.47-8.44,5.47-13.9s-1.82-10.09-5.47-13.9
			S457.51,393.72,452.26,393.72z"/>
		<path d="M549.02,370.36v24.3c-1.83-0.62-3.25-0.94-4.25-0.94c-1.92,0-3.56,0.71-4.93,2.12c-1.37,1.42-2.06,3.12-2.06,5.12
			c0,1.71,0.75,3.87,2.25,6.5l1.94,3.37c3.5,6.08,5.25,11.95,5.25,17.62c0,8.29-2.95,15.3-8.84,21.05
			c-5.89,5.75-13.09,8.62-21.58,8.62c-4.08,0-8.12-0.94-12.12-2.81v-24.67c2.42,1.54,4.56,2.31,6.43,2.31
			c2.21,0,4.05-0.64,5.53-1.91c1.48-1.27,2.22-2.86,2.22-4.78c0-1.25-1.19-3.98-3.56-8.18c-3.79-6.66-5.68-13.33-5.68-19.99
			c0-8.04,2.86-14.96,8.59-20.77s12.57-8.71,20.52-8.71C542.21,368.61,545.65,369.2,549.02,370.36z"/>
	</g>
	<g>
		<g>
			<path d="M279.42,419.98c-1.03-2.92-0.5-4.35,2.13-5.98c0.2-0.13,0.33-0.52,0.33-0.79c0.03-2.25,0.01-4.5,0.02-6.75
				c0-1.02,0.35-1.49,1.09-1.52c0.76-0.03,1.22,0.52,1.22,1.51c0.01,2.25,0.02,4.5-0.01,6.75c-0.01,0.51,0.14,0.76,0.62,0.99
				c1.97,0.95,2.83,3.19,2.05,5.17c-0.78,1.99-2.92,3.07-4.99,2.43c-0.62-0.19-0.98-0.04-1.42,0.33c-1.23,1.07-2.48,2.11-3.73,3.16
				c-0.76,0.64-1.47,0.65-1.94,0.05c-0.44-0.55-0.28-1.23,0.44-1.83C276.64,422.32,278.04,421.14,279.42,419.98z M284.8,417.85
				c-0.01-1.04-0.74-1.74-1.81-1.73c-0.99,0.01-1.75,0.76-1.77,1.72c-0.02,0.91,0.9,1.83,1.81,1.84
				C284.02,419.68,284.81,418.87,284.8,417.85z"/>
			<path d="M281.24,435.07c0.02-0.45,0.01-0.87,0.07-1.28c0.09-0.65,0.54-1.1,1.14-0.98c0.42,0.08,0.99,0.56,1.06,0.95
				c0.16,0.82,0.09,1.71,0.02,2.56c-0.05,0.62-0.53,0.93-1.12,0.92c-0.6-0.01-1.01-0.35-1.1-0.96
				C281.25,435.86,281.26,435.45,281.24,435.07z"/>
			<path d="M283.64,397.77c-0.02,0.41-0.01,0.83-0.08,1.23c-0.11,0.59-0.48,0.94-1.1,0.95c-0.62,0.01-1.06-0.33-1.11-0.92
				c-0.08-0.85-0.14-1.73,0.02-2.55c0.07-0.38,0.65-0.82,1.07-0.92c0.63-0.15,1.04,0.34,1.14,0.97c0.06,0.4,0.01,0.82,0.01,1.24
				C283.6,397.77,283.62,397.77,283.64,397.77z"/>
			<path d="M263.8,415.25c0.36,0,0.71-0.01,1.07,0c0.71,0.01,1.12,0.41,1.16,1.08c0.04,0.65-0.37,1.11-0.98,1.18
				c-0.82,0.09-1.66,0.09-2.48,0c-0.66-0.07-1.04-0.55-0.96-1.26c0.07-0.66,0.48-0.99,1.13-1
				C263.09,415.24,263.44,415.25,263.8,415.25z"/>
			<path d="M301.04,417.55c-0.36,0-0.72,0.04-1.06-0.01c-0.7-0.1-1.17-0.5-1.13-1.24c0.04-0.68,0.48-1.06,1.18-1.06
				c0.68,0,1.36-0.01,2.04,0c0.74,0.01,1.19,0.36,1.2,1.12c0.01,0.77-0.47,1.11-1.17,1.18C301.75,417.58,301.4,417.56,301.04,417.55
				C301.04,417.55,301.04,417.55,301.04,417.55z"/>
			<path d="M270.06,405.23c-0.34-0.17-0.62-0.24-0.8-0.41c-0.56-0.52-1.12-1.05-1.63-1.62c-0.46-0.51-0.45-1.08,0.05-1.58
				c0.43-0.43,1.15-0.39,1.61,0.02c0.58,0.52,1.16,1.06,1.61,1.68c0.21,0.28,0.21,0.86,0.06,1.2
				C270.84,404.82,270.38,405,270.06,405.23z"/>
			<path d="M296.47,431.58c-0.37-0.18-0.68-0.25-0.88-0.44c-0.55-0.49-1.07-1.02-1.57-1.56c-0.67-0.73-0.44-1.59,0.94-2.21
				c0.78,0.7,1.65,1.4,2.28,2.26c0.21,0.29,0.24,0.85,0.1,1.2C297.23,431.15,296.78,431.33,296.47,431.58z"/>
			<path d="M294.72,405.16c-0.23-0.17-0.69-0.34-0.82-0.65c-0.15-0.34-0.14-0.92,0.06-1.2c0.49-0.66,1.07-1.28,1.74-1.74
				c0.31-0.22,1.01-0.19,1.34,0.03c0.28,0.18,0.52,0.98,0.36,1.18c-0.64,0.82-1.43,1.53-2.18,2.27
				C295.16,405.12,295.01,405.1,294.72,405.16z"/>
			<path d="M268.55,431.46c-0.95-0.02-1.56-1-1.03-1.69c0.55-0.72,1.21-1.38,1.93-1.92c0.27-0.2,0.98-0.11,1.26,0.13
				c0.27,0.23,0.47,0.98,0.31,1.2c-0.61,0.8-1.39,1.49-2.12,2.2C268.82,431.47,268.63,431.45,268.55,431.46z"/>
		</g>
		<path class="st0" d="M300.11,357.93h-34.2c-1.47,0-2.67-1.2-2.67-2.67v-16.59c0-1.47,1.2-2.67,2.67-2.67h34.2
			c1.47,0,2.67,1.2,2.67,2.67v16.59C302.78,356.73,301.58,357.93,300.11,357.93z"/>
		<rect x="278.61" y="357.93" class="st1" width="8.8" height="18.84"/>
		<circle class="st0" cx="282.43" cy="416.39" r="39.62"/>
		<circle class="st2" cx="282.43" cy="416.39" r="30.41"/>
	</g>
</g>
</svg>
