<svg width="92" height="92" viewBox="0 0 92 92" fill="none" xmlns="http://www.w3.org/2000/svg">
<path fill-rule="evenodd" clip-rule="evenodd" d="M46 82.8C37.633 82.8133 29.5134 79.9629 22.9908 74.7224L23 74.727V71.5852C23 63.3328 29.8632 56.6352 38.3318 56.6352H53.6682C62.1322 56.6352 69 63.3328 69 71.5852V74.727C62.4792 79.9638 54.3633 82.8125 46 82.8ZM0 46C0 20.5942 20.5942 0 46 0C71.4058 0 92 20.5942 92 46C92 71.3 71.576 91.8298 46.3128 92H45.678C20.4148 91.8252 0 71.3 0 46ZM46 23C37.536 23 30.6682 29.693 30.6682 37.95C30.6682 46.207 37.5314 52.9 46 52.9C54.464 52.9 61.3318 46.207 61.3318 37.95C61.3318 29.693 54.4686 23 46 23Z" fill="#2841A5"/>
</svg>
