<svg width="65" height="87" viewBox="0 0 65 87" fill="none" xmlns="http://www.w3.org/2000/svg">
<path fill-rule="evenodd" clip-rule="evenodd" d="M32.5 0C26.7536 0 21.2426 2.29151 17.1794 6.37043C13.1161 10.4493 10.8333 15.9815 10.8333 21.75C10.8333 27.5185 13.1161 33.0507 17.1794 37.1296C21.2426 41.2085 26.7536 43.5 32.5 43.5C38.2464 43.5 43.7574 41.2085 47.8206 37.1296C51.8839 33.0507 54.1667 27.5185 54.1667 21.75C54.1667 15.9815 51.8839 10.4493 47.8206 6.37043C43.7574 2.29151 38.2464 0 32.5 0ZM21.6667 48.9375C15.9203 48.9375 10.4093 51.229 6.34602 55.3079C2.28273 59.3868 0 64.919 0 70.6875V76.125C0 79.0092 1.14137 81.7753 3.17301 83.8148C5.20465 85.8542 7.96015 87 10.8333 87H54.1667C57.0398 87 59.7953 85.8542 61.827 83.8148C63.8586 81.7753 65 79.0092 65 76.125V70.6875C65 64.919 62.7173 59.3868 58.654 55.3079C54.5907 51.229 49.0797 48.9375 43.3333 48.9375H21.6667Z" fill="#2841A5"/>
</svg>
