<svg width="15" height="21" viewBox="0 0 15 21" fill="none" xmlns="http://www.w3.org/2000/svg">
<path d="M6 0.370361C4.4087 0.370361 2.88258 1.21589 1.75736 2.72094C0.632141 4.226 0 6.26729 0 8.39575C0 10.5242 0.632141 12.5655 1.75736 14.0706C2.88258 15.5756 4.4087 16.4211 6 16.4211C7.5913 16.4211 9.11742 15.5756 10.2426 14.0706C11.3679 12.5655 12 10.5242 12 8.39575C12 6.26729 11.3679 4.226 10.2426 2.72094C9.11742 1.21589 7.5913 0.370361 6 0.370361Z" fill="#284ECB"/>
<path fill-rule="evenodd" clip-rule="evenodd" d="M14.7866 20.7012C14.6499 20.8971 14.4645 21.0071 14.2712 21.0071C14.0779 21.0071 13.8926 20.8971 13.7559 20.7012L11.2046 17.045C11.0718 16.848 10.9984 16.5841 11 16.3102C11.0017 16.0363 11.0783 15.7743 11.2135 15.5806C11.3486 15.3869 11.5315 15.2771 11.7226 15.2747C11.9137 15.2723 12.0978 15.3776 12.2353 15.5679L14.7866 19.2241C14.9232 19.42 15 19.6857 15 19.9627C15 20.2397 14.9232 20.5053 14.7866 20.7012Z" fill="#284ECB"/>
</svg>
